PathFileType	4	(X/Y/Z)	Patient4_TMGait_0pt6_01_left_04.trc.trc
DataRate	CameraRate	NumFrames	NumMarkers	Units	OrigDataRate	OrigDataStartFrame	OrigNumFrames
78.651685393258	78.651685393258	4	33	mm	78.651685393258	89	       141
Frame#	Time	Sacral			L.Shoulder			Chest			R.Shoulder			Neck			R.ASIS			L.ASIS			R.Thigh.Superior			R.Thigh.Lateral			R.Thigh.Inferior			R.Patella			L.Thigh.Superior			L.Thigh.Lateral			L.Thigh.Inferior			L.Patella			L.Shank.Superior			L.Shank.Lateral			L.Shank.Inferior			R.Shank.Superior			R.Shank.Lateral			R.Shank.Inferior			R.Heel			R.Midfoot.Superior			R.Midfoot.Lateral			R.Toe			L.Heel			L.Midfoot.Lateral			L.Midfoot.Superior			L.Toe			L.Elbow			L.Wrist			R.Elbow			R.Wrist			
		X1	Y1	Z1	X2	Y2	Z2	X3	Y3	Z3	X4	Y4	Z4	X5	Y5	Z5	X6	Y6	Z6	X7	Y7	Z7	X8	Y8	Z8	X9	Y9	Z9	X10	Y10	Z10	X11	Y11	Z11	X12	Y12	Z12	X13	Y13	Z13	X14	Y14	Z14	X15	Y15	Z15	X16	Y16	Z16	X17	Y17	Z17	X18	Y18	Z18	X19	Y19	Z19	X20	Y20	Z20	X21	Y21	Z21	X22	Y22	Z22	X23	Y23	Z23	X24	Y24	Z24	X25	Y25	Z25	X26	Y26	Z26	X27	Y27	Z27	X28	Y28	Z28	X29	Y29	Z29	X30	Y30	Z30	X31	Y31	Z31	X32	Y32	Z32	X33	Y33	Z33	

89	5.888857142857	642.339344512338	997.610020687378	495.009771789087	794.207275810166	1439.972156059344	329.971552917270	899.519410790072	1370.963530287097	489.772715358825	809.318356400531	1432.048372301410	664.203234716150	774.406776992023	1494.340825777573	484.756322122515	868.020137714018	945.918506536996	617.220592248210	859.605593063942	960.935282727897	342.847211703094	922.635450178472	748.282991437645	593.044334736761	845.235302141643	634.081721020312	644.390903495593	931.729727755783	589.107034225015	568.989497782868	937.536193927461	500.513820311308	573.396912534507	910.303801413179	746.212576432797	365.265601166010	830.371744548820	628.073909060303	296.114648319017	921.558904025807	546.650074855590	350.694028019666	914.980858881875	458.033099986451	345.870501626015	841.649110580341	400.432967700570	343.816677189511	695.473720378974	368.075443755904	302.610032655147	675.882267279862	242.433323386220	362.461409309831	915.378310090660	410.037038808162	576.348160099426	847.194650996077	299.358263693439	629.064826647212	902.303775672326	210.392787861707	566.772499606809	781.242851968339	40.970115401857	523.857399666854	951.914753885565	99.810711867556	562.538913714418	864.275769446992	35.556115620260	599.293530495690	1071.565237008330	50.011320468930	588.793978519505	481.322515811404	185.476355102072	412.235601722364	533.093994161441	144.166110738611	325.979884005872	639.927468299216	149.382002150658	341.250056630842	713.720115253924	41.161752398251	301.523767910837	815.648383545220	1093.483754200753	198.670231876942	1050.989180534615	1032.093241717907	274.309701223956	777.683042325092	1078.240479077388	766.446921845803	881.244270597016	838.348899373637	755.824381281534	
90	5.901571428571	641.760337787011	999.245768035402	497.873619283969	792.063793508473	1442.006059575213	333.530186383633	899.231181604598	1372.149796137336	491.795956172910	811.215564307926	1432.593286502845	667.575325844395	774.021761354674	1495.763460947297	488.598996386953	868.091920174534	947.086338250237	618.411630863944	858.155598123963	962.555639631579	344.122999191377	919.527737167380	747.827924109799	594.993008544710	840.259549644086	634.578017424048	645.975891817860	926.154297410887	588.582807521612	570.623552840028	930.562067807632	500.298846137466	574.887150731185	912.975391827806	750.563156496104	365.631481612547	835.943013541547	631.087133176850	295.853862676897	929.956027490077	551.575967102454	348.876755238400	925.144732529437	462.293771830880	343.494718199137	851.732780913322	404.022429208214	342.420594230591	704.514191370302	372.516142827931	304.015857667459	685.667086816687	246.609435679111	363.506904683339	908.214179107670	410.077295839110	577.664115731063	839.443564375842	299.544611052221	629.882398367646	894.708360630025	210.528575445781	567.665606797775	773.559695104336	41.086781092415	524.080155990528	944.435945205112	99.795861313971	562.964287420062	856.600773577576	35.514012792837	599.442372340139	1063.910325818337	49.863250343901	588.955974757870	491.900380274072	190.276848305952	417.000092291921	541.610758820376	149.492147015983	329.194330781747	648.871836213381	153.802175734994	342.357640490640	721.143683353562	44.055344438822	299.719132704903	808.689551639851	1094.872525987072	202.578013636917	1042.492729547914	1021.747191315481	275.164113717246	788.021859390645	1077.672433313919	769.443114338444	901.915610197176	842.691617841291	755.098142091886	
91	5.914285714286	641.040606409480	1000.739623471442	500.576652084839	789.993281644259	1443.841184637120	336.945957999913	898.884013470575	1373.188949524595	493.744924379354	812.961352815826	1433.058588856757	670.776601393623	773.644900195584	1497.053090030738	492.257273966390	867.993720107975	948.054364724980	619.578167631921	856.628924424109	964.131952823901	345.385043528345	916.403285927485	747.450928832514	596.475748541270	835.537106353054	635.068274869157	647.360334217897	920.686595377896	588.098074493953	571.941927072631	923.773553985551	500.108766400108	576.129137606875	915.209606671622	754.912337209218	365.820501072848	840.813658575114	634.304084112171	295.420477415341	937.460294195606	556.703009041176	346.825006168439	934.514473193129	466.937663925629	340.900638862528	861.497106467491	407.752376609438	340.818497472532	713.632239809219	375.864326270416	305.097096870661	696.496866953853	249.586068892205	364.260285080079	901.228840097100	410.112367887169	578.750419650129	831.888967398064	299.760820251909	630.558783036000	887.219697704954	210.651412139991	568.400922404308	765.850185099354	41.218803170214	524.275273133746	936.938073990148	99.768315955478	563.308830810692	848.904248142799	35.491000595696	599.561268133509	1056.242225924903	49.666248574778	589.089025483914	504.103227612838	192.098961265618	421.311839652406	552.220415523038	152.264724466402	332.105198671618	659.692198606500	156.843506965498	343.238911737660	731.574431805200	46.781228066327	297.986332468806	801.308654003703	1096.034694026320	206.468729682766	1033.014461197121	1010.947272805823	275.359446576515	798.206925101825	1077.295560773343	772.270610632896	922.454532823180	847.884663189220	754.357234480858	
92	5.927000000000	640.199006854486	1002.075736676573	503.133655561831	788.018934581020	1445.469962199121	340.219210720742	898.481177836331	1374.081220403678	495.641792208904	814.529825098277	1433.445936520997	673.815215316489	773.282661942067	1498.190436305125	495.748861406940	867.752318666902	948.816994584343	620.717697235072	855.034345113669	965.665967627902	346.627746459218	913.305607832584	747.141153223699	597.506640478196	831.095513406217	635.536761715944	648.550526523126	915.374066249241	587.642757297846	572.969132821087	917.224136777328	499.928087967289	577.139908968084	917.030379505527	759.180388316038	365.866925319430	845.012133387192	637.605290635565	294.879314805983	944.078735459003	561.889281996486	344.656229755461	943.062803556805	471.842128796396	338.220442197082	870.913228285939	411.506637721122	339.105973097895	722.838357100268	377.989729163764	305.808473382915	708.343325863874	251.264969222194	364.670670483225	894.463269977362	410.127685702600	579.620964335188	824.558535528474	299.994301743627	631.101272216318	879.856004684722	210.750096172301	568.980417699819	758.128499173063	41.355507173478	524.437209127497	929.423055530900	99.733580569910	563.570198792437	841.200871861659	35.488403906333	599.651721820607	1048.571006261568	49.443747221733	589.195169222832	517.837908193392	190.952495710440	424.914118109929	564.897600769780	152.393044335145	334.524721445584	672.378201761928	158.350333467842	343.819932223128	744.979114360517	49.074520889177	296.388168447625	793.573283957477	1097.005772992938	210.321270162634	1022.517047542153	999.684369700486	274.913132762581	808.155549575901	1077.093341114207	774.905760080985	942.757649769113	853.959832844734	753.559151173550	
